<svg width="43" height="42" viewBox="0 0 43 42" fill="none" xmlns="http://www.w3.org/2000/svg">
<path d="M14.8499 42C16.7065 42 18.4869 41.2625 19.7997 39.9497C21.1124 38.637 21.8499 36.8565 21.8499 35V28H14.8499C12.9934 28 11.213 28.7375 9.9002 30.0503C8.58744 31.363 7.84995 33.1435 7.84995 35C7.84995 36.8565 8.58744 38.637 9.9002 39.9497C11.213 41.2625 12.9934 42 14.8499 42Z" fill="#0ACF83"/>
<path d="M7.84995 21C7.84995 19.1435 8.58744 17.363 9.9002 16.0503C11.213 14.7375 12.9934 14 14.8499 14H21.8499V28H14.8499C12.9934 28 11.213 27.2625 9.9002 25.9497C8.58744 24.637 7.84995 22.8565 7.84995 21Z" fill="#A259FF"/>
<path d="M7.84995 7C7.84994 5.14443 8.58669 3.36478 9.89826 2.05218C11.2098 0.739587 12.9889 0.00144966 14.8445 0L21.8445 0V14H14.8499C12.9934 14 11.213 13.2625 9.9002 11.9497C8.58744 10.637 7.84995 8.85651 7.84995 7Z" fill="#F24E1E"/>
<path d="M21.8499 0H28.8499C30.7065 0 32.4869 0.737498 33.7997 2.05025C35.1124 3.36301 35.8499 5.14348 35.8499 7C35.8499 8.85651 35.1124 10.637 33.7997 11.9497C32.4869 13.2625 30.7065 14 28.8499 14H21.8499V0Z" fill="#FF7262"/>
<path d="M35.8499 21C35.8499 22.8565 35.1124 24.637 33.7997 25.9497C32.4869 27.2625 30.7065 28 28.8499 28C26.9934 28 25.213 27.2625 23.9002 25.9497C22.5874 24.637 21.8499 22.8565 21.8499 21C21.8499 19.1435 22.5874 17.363 23.9002 16.0503C25.213 14.7375 26.9934 14 28.8499 14C30.7065 14 32.4869 14.7375 33.7997 16.0503C35.1124 17.363 35.8499 19.1435 35.8499 21Z" fill="#1ABCFE"/>
</svg>
