<svg width="18" height="17" viewBox="0 0 18 17" fill="none" xmlns="http://www.w3.org/2000/svg">
<path d="M9.00987 16.5096C4.73716 16.5096 0.127533 14.0052 0.127533 8.50964C0.127533 3.01412 4.73716 0.509644 9.00987 0.509644C11.3836 0.509644 13.5736 1.23952 15.1969 2.57047C16.958 4.03022 17.8922 6.09104 17.8922 8.50964C17.8922 10.9282 16.958 12.9748 15.1969 14.4345C13.5736 15.7655 11.3683 16.5096 9.00987 16.5096Z" fill="url(#paint0_radial_1_85)"/>
<path d="M16.3454 3.75391C17.1616 4.98467 17.5874 6.45015 17.5874 8.0802C17.5874 10.4988 16.6532 12.5453 14.8921 14.0051C13.2687 15.336 11.0635 16.0802 8.70506 16.0802C5.93928 16.0802 3.03874 15.0283 1.3266 12.7972C2.97442 15.3246 6.07405 16.5095 9.01134 16.5095C11.3698 16.5095 13.575 15.7653 15.1983 14.4344C16.9595 12.9747 17.8937 10.9281 17.8937 8.50954C17.8937 6.68628 17.3623 5.06625 16.3454 3.75391Z" fill="#EB8F00"/>
<path d="M6.77517 7.64983L6.7522 7.62121L6.68634 7.5425L6.60517 7.46092C6.57148 7.42514 6.53166 7.39079 6.49338 7.35358C6.45509 7.31637 6.40761 7.28059 6.36473 7.25054C6.32491 7.22192 6.28203 7.19472 6.23609 7.17326C6.20546 7.15751 6.17176 7.14463 6.13654 7.13748C6.12582 7.13605 6.1151 7.13605 6.10438 7.13748C6.10438 7.13748 6.09519 7.13748 6.0906 7.13748H6.07834H6.11969H6.03546C6.01249 7.13748 6.0278 7.13748 6.03546 7.13748H6.04771H6.03087C5.99564 7.14463 5.96195 7.15608 5.92979 7.17326C5.88538 7.19615 5.84096 7.22192 5.80115 7.25054C5.75673 7.28202 5.71385 7.31637 5.67403 7.35358C5.59286 7.42657 5.52088 7.4967 5.47494 7.55252L5.3953 7.63839L5.36008 7.67703C5.13955 7.90745 4.7674 7.94466 4.49939 7.76433C4.32786 7.6527 4.24057 7.45949 4.27426 7.26628C4.27426 7.26628 4.28498 7.20904 4.31408 7.10742C4.36002 6.96287 4.42435 6.82262 4.50551 6.69095C4.63569 6.47628 4.81181 6.28879 5.02315 6.13995C5.16252 6.03977 5.3172 5.95963 5.4826 5.90381C5.52854 5.88664 5.57602 5.87376 5.62349 5.86231C5.67403 5.848 5.72457 5.83798 5.77664 5.82939L5.87006 5.81651L5.94817 5.80792H6.0324H6.15339H6.23149C6.28356 5.80792 6.3341 5.8208 6.38464 5.82796C6.48265 5.8437 6.58067 5.86803 6.67409 5.90095C6.83949 5.95676 6.99417 6.03691 7.13353 6.13709C7.34488 6.28593 7.521 6.47341 7.65117 6.68809C7.69865 6.76251 7.74 6.84123 7.77369 6.92137C7.80279 6.98577 7.82729 7.05018 7.8472 7.11744C7.85792 7.15179 7.86711 7.18614 7.87171 7.22048V7.25626C7.91765 7.54822 7.70018 7.82014 7.38776 7.86308C7.3801 7.86451 7.37244 7.86451 7.36479 7.86594C7.14119 7.896 6.9176 7.81299 6.77517 7.64983Z" fill="#422B0D"/>
<path d="M12.8196 7.64983L12.7951 7.62121L12.7292 7.5425L12.6481 7.46092C12.6144 7.42514 12.5746 7.39079 12.5363 7.35358C12.498 7.31637 12.4505 7.28059 12.4076 7.25054C12.3678 7.22192 12.3249 7.19472 12.279 7.17326C12.2484 7.15751 12.2147 7.14463 12.1794 7.13748C12.1687 7.13605 12.158 7.13605 12.1473 7.13748C12.1473 7.13748 12.1381 7.13748 12.1335 7.13748H12.1213H12.1626H12.0784C12.0554 7.13748 12.0707 7.13748 12.0784 7.13748H12.0906H12.0738C12.0386 7.14463 12.0049 7.15608 11.9727 7.17326C11.9283 7.19472 11.8854 7.22192 11.8456 7.25054C11.7996 7.28202 11.7568 7.31637 11.7169 7.35358C11.6358 7.42657 11.5638 7.4967 11.5178 7.55252L11.4382 7.63839L11.4045 7.67703C11.1825 7.90745 10.8118 7.94466 10.5423 7.76433C10.3708 7.6527 10.2835 7.45949 10.3172 7.26628C10.3172 7.26628 10.3279 7.20904 10.3585 7.10742C10.4045 6.96144 10.4673 6.82119 10.55 6.69095C10.6801 6.47628 10.8547 6.28879 11.0661 6.13995C11.2054 6.03977 11.3601 5.95963 11.5255 5.90381C11.5714 5.88664 11.6189 5.87376 11.6664 5.86231C11.7169 5.848 11.7675 5.83798 11.8195 5.82939L11.9145 5.81651L11.9911 5.80792H12.0753H12.1963H12.2744C12.3265 5.80792 12.377 5.8208 12.4275 5.82796C12.5271 5.8437 12.6236 5.86803 12.717 5.90095C12.8824 5.95676 13.0371 6.03691 13.1764 6.13709C13.3878 6.28593 13.5639 6.47341 13.6941 6.68809C13.7416 6.76251 13.7829 6.84123 13.8166 6.92137C13.8457 6.98434 13.8702 7.04874 13.8901 7.11458C13.9008 7.14893 13.91 7.18327 13.9146 7.21762V7.2534C13.9636 7.54536 13.7492 7.81871 13.4368 7.86451C13.4322 7.86451 13.4276 7.86594 13.423 7.86594C13.1948 7.90172 12.9636 7.81871 12.8196 7.64983Z" fill="#422B0D"/>
<path d="M14.9025 9.75734C14.6881 9.39526 14.2225 9.2364 13.809 9.38238C12.2377 9.8103 10.6082 10.0235 8.97103 10.0164C7.33388 10.0235 5.70438 9.8103 4.13308 9.38238C3.72111 9.2364 3.25554 9.39383 3.04114 9.75448C2.83285 10.1137 2.98294 10.5302 3.15906 10.8894C4.14227 12.9073 6.30932 14.1153 8.95878 14.1224H8.98328C11.6327 14.1224 13.7998 12.9073 14.7845 10.8894C14.9591 10.5273 15.1107 10.1166 14.9025 9.75734Z" fill="#422B0D"/>
<path d="M11.421 13.553C11.3643 13.5043 11.3061 13.4599 11.2479 13.4098C10.6231 12.8961 9.81445 12.6198 8.98132 12.6356C8.1237 12.6227 7.28904 12.8889 6.61978 13.3898C6.56158 13.4342 6.50033 13.4771 6.44366 13.5329C6.387 13.5887 6.35637 13.6288 6.31961 13.676C7.16193 13.9837 8.05937 14.1412 8.96448 14.1369H8.98898C9.8558 14.1369 10.715 13.9923 11.5266 13.7075C11.496 13.6531 11.4608 13.6016 11.421 13.553Z" fill="#ED7770"/>
<path d="M13.8092 9.38249C12.2379 9.81041 10.6084 10.0237 8.97123 10.0165C7.33407 10.0237 5.70458 9.81041 4.13328 9.38249C3.72131 9.23652 3.25574 9.39394 3.04133 9.7546C3.0107 9.80898 2.9862 9.86623 2.97089 9.92491C3.02143 9.94924 3.07962 9.97357 3.14854 9.99933C4.99244 10.8623 7.03084 11.3003 9.09221 11.2774C11.0694 11.2988 13.0235 10.8967 14.8092 10.1038C14.8812 10.0752 14.9409 10.048 14.9945 10.0222C14.9823 9.9292 14.9501 9.83761 14.9027 9.7546C14.6882 9.39394 14.2227 9.23508 13.8092 9.38249Z" fill="white"/>
<path d="M14.9086 9.75881C14.6911 9.39672 14.224 9.23643 13.8074 9.38241C12.2361 9.81033 10.6067 10.0236 8.97103 10.0164C7.33388 10.0236 5.70438 9.81033 4.13308 9.38241C3.72111 9.23643 3.25554 9.39386 3.04114 9.75451C2.83285 10.1137 2.98294 10.5302 3.15906 10.8894C3.23717 11.0512 3.32446 11.21 3.42094 11.3631C3.42094 11.3631 3.09933 10.2497 3.37806 9.92625C3.47301 9.78886 3.63229 9.70299 3.80688 9.6944C3.87886 9.6944 3.9493 9.70585 4.01822 9.72589C5.61709 10.1653 7.27568 10.3871 8.94346 10.3842H8.99706C10.6648 10.3871 12.3234 10.1653 13.9223 9.72589C13.9912 9.70585 14.0617 9.6944 14.1337 9.6944C14.3082 9.70299 14.469 9.78886 14.564 9.92625C14.8473 10.2497 14.5211 11.3674 14.5211 11.3674C14.6161 11.2143 14.711 11.0569 14.7907 10.8937C14.9652 10.5345 15.1169 10.1195 14.9086 9.75881Z" fill="#EB8F00"/>
<defs>
<radialGradient id="paint0_radial_1_85" cx="0" cy="0" r="1" gradientUnits="userSpaceOnUse" gradientTransform="translate(9.00987 8.50964) scale(8.72302 8.15166)">
<stop offset="0.5" stop-color="#FDE030"/>
<stop offset="0.92" stop-color="#F7C02B"/>
<stop offset="1" stop-color="#F4A223"/>
</radialGradient>
</defs>
</svg>
