<svg width="40" height="40" viewBox="0 0 40 40" fill="none" xmlns="http://www.w3.org/2000/svg">
<rect width="40" height="40" fill="white"/>
<path d="M7.33594 21.1396C7.33594 21.0127 7.31641 20.8988 7.27734 20.7979C7.24154 20.6937 7.17318 20.5993 7.07227 20.5146C6.97135 20.4268 6.82975 20.3405 6.64746 20.2559C6.46517 20.1712 6.22917 20.0833 5.93945 19.9922C5.61719 19.888 5.3112 19.7708 5.02148 19.6406C4.73503 19.5104 4.48112 19.359 4.25977 19.1865C4.04167 19.0107 3.86914 18.8073 3.74219 18.5762C3.61849 18.3451 3.55664 18.0765 3.55664 17.7705C3.55664 17.4743 3.62174 17.2057 3.75195 16.9648C3.88216 16.7207 4.06445 16.5124 4.29883 16.3398C4.5332 16.1641 4.8099 16.029 5.12891 15.9346C5.45117 15.8402 5.80436 15.793 6.18848 15.793C6.71257 15.793 7.16992 15.8874 7.56055 16.0762C7.95117 16.265 8.25391 16.5238 8.46875 16.8525C8.68685 17.1813 8.7959 17.5573 8.7959 17.9805H7.34082C7.34082 17.7721 7.29688 17.5898 7.20898 17.4336C7.12435 17.2741 6.99414 17.1488 6.81836 17.0576C6.64583 16.9665 6.42773 16.9209 6.16406 16.9209C5.91016 16.9209 5.69857 16.96 5.5293 17.0381C5.36003 17.113 5.23307 17.2155 5.14844 17.3457C5.0638 17.4727 5.02148 17.6159 5.02148 17.7754C5.02148 17.8958 5.05078 18.0049 5.10938 18.1025C5.17122 18.2002 5.26237 18.2913 5.38281 18.376C5.50326 18.4606 5.65137 18.5404 5.82715 18.6152C6.00293 18.6901 6.20638 18.7633 6.4375 18.835C6.82487 18.9521 7.16504 19.084 7.45801 19.2305C7.75423 19.377 8.00163 19.5413 8.2002 19.7236C8.39876 19.9059 8.5485 20.1126 8.64941 20.3438C8.75033 20.5749 8.80078 20.8369 8.80078 21.1299C8.80078 21.4391 8.74056 21.7158 8.62012 21.96C8.49967 22.2041 8.32552 22.4108 8.09766 22.5801C7.86979 22.7493 7.59798 22.8779 7.28223 22.9658C6.96647 23.0537 6.61328 23.0977 6.22266 23.0977C5.87109 23.0977 5.52441 23.0521 5.18262 22.9609C4.84082 22.8665 4.52995 22.7249 4.25 22.5361C3.97331 22.3473 3.75195 22.1064 3.58594 21.8135C3.41992 21.5205 3.33691 21.1738 3.33691 20.7734H4.80664C4.80664 20.9948 4.84082 21.182 4.90918 21.335C4.97754 21.488 5.07357 21.6117 5.19727 21.7061C5.32422 21.8005 5.47396 21.8688 5.64648 21.9111C5.82227 21.9535 6.01432 21.9746 6.22266 21.9746C6.47656 21.9746 6.6849 21.9388 6.84766 21.8672C7.01367 21.7956 7.13574 21.6963 7.21387 21.5693C7.29525 21.4424 7.33594 21.2992 7.33594 21.1396ZM11.1934 17.7168V23H9.78223V17.7168H11.1934ZM9.69434 16.3398C9.69434 16.1348 9.76595 15.9655 9.90918 15.832C10.0524 15.6986 10.2445 15.6318 10.4854 15.6318C10.723 15.6318 10.9134 15.6986 11.0566 15.832C11.2031 15.9655 11.2764 16.1348 11.2764 16.3398C11.2764 16.5449 11.2031 16.7142 11.0566 16.8477C10.9134 16.9811 10.723 17.0479 10.4854 17.0479C10.2445 17.0479 10.0524 16.9811 9.90918 16.8477C9.76595 16.7142 9.69434 16.5449 9.69434 16.3398ZM15.3193 20.8174V15.8906H16.7793V20.8174C16.7793 21.2926 16.6751 21.7012 16.4668 22.043C16.2585 22.3815 15.9736 22.6419 15.6123 22.8242C15.2542 23.0065 14.8506 23.0977 14.4014 23.0977C13.9359 23.0977 13.5241 23.0195 13.166 22.8633C12.8079 22.707 12.5264 22.4678 12.3213 22.1455C12.1162 21.82 12.0137 21.4082 12.0137 20.9102H13.4834C13.4834 21.1706 13.5192 21.3773 13.5908 21.5303C13.6657 21.6833 13.7715 21.7923 13.9082 21.8574C14.0449 21.9225 14.2093 21.9551 14.4014 21.9551C14.5869 21.9551 14.748 21.9111 14.8848 21.8232C15.0215 21.7354 15.1273 21.6068 15.2021 21.4375C15.2803 21.2682 15.3193 21.0615 15.3193 20.8174ZM20.793 21.8086V19.4551C20.793 19.2858 20.7653 19.141 20.71 19.0205C20.6546 18.8968 20.5684 18.8008 20.4512 18.7324C20.3372 18.6641 20.1891 18.6299 20.0068 18.6299C19.8506 18.6299 19.7155 18.6576 19.6016 18.7129C19.4876 18.765 19.3997 18.8415 19.3379 18.9424C19.276 19.04 19.2451 19.1556 19.2451 19.2891H17.8389C17.8389 19.0645 17.891 18.8512 17.9951 18.6494C18.0993 18.4476 18.2507 18.2702 18.4492 18.1172C18.6478 17.9609 18.8838 17.8389 19.1572 17.751C19.4339 17.6631 19.7432 17.6191 20.085 17.6191C20.4951 17.6191 20.8597 17.6875 21.1787 17.8242C21.4977 17.9609 21.7484 18.166 21.9307 18.4395C22.1162 18.7129 22.209 19.0547 22.209 19.4648V21.7256C22.209 22.0153 22.2269 22.2529 22.2627 22.4385C22.2985 22.6208 22.3506 22.7803 22.4189 22.917V23H20.998C20.9297 22.8568 20.8776 22.6777 20.8418 22.4629C20.8092 22.2448 20.793 22.0267 20.793 21.8086ZM20.9785 19.7822L20.9883 20.5781H20.2021C20.0166 20.5781 19.8555 20.5993 19.7188 20.6416C19.582 20.6839 19.4697 20.7441 19.3818 20.8223C19.2939 20.8971 19.2288 20.985 19.1865 21.0859C19.1475 21.1868 19.1279 21.2975 19.1279 21.418C19.1279 21.5384 19.1556 21.6475 19.2109 21.7451C19.2663 21.8395 19.346 21.9144 19.4502 21.9697C19.5544 22.0218 19.6764 22.0479 19.8164 22.0479C20.028 22.0479 20.2119 22.0055 20.3682 21.9209C20.5244 21.8363 20.6449 21.7321 20.7295 21.6084C20.8174 21.4847 20.863 21.3675 20.8662 21.2568L21.2373 21.8525C21.1852 21.986 21.1136 22.1243 21.0225 22.2676C20.9346 22.4108 20.8223 22.5459 20.6855 22.6729C20.5488 22.7965 20.3844 22.8991 20.1924 22.9805C20.0003 23.0586 19.7725 23.0977 19.5088 23.0977C19.1735 23.0977 18.8691 23.0309 18.5957 22.8975C18.3255 22.7607 18.1107 22.5736 17.9512 22.3359C17.7949 22.0951 17.7168 21.8216 17.7168 21.5156C17.7168 21.2389 17.7689 20.9932 17.873 20.7783C17.9772 20.5635 18.1302 20.3828 18.332 20.2363C18.5371 20.0866 18.7926 19.9743 19.0986 19.8994C19.4046 19.8213 19.7594 19.7822 20.1631 19.7822H20.9785ZM26.6377 17.7168H27.9121V22.8242C27.9121 23.306 27.8047 23.7145 27.5898 24.0498C27.3783 24.3883 27.082 24.6439 26.7012 24.8164C26.3203 24.9922 25.8776 25.0801 25.373 25.0801C25.1517 25.0801 24.9173 25.0508 24.6699 24.9922C24.4258 24.9336 24.1914 24.8424 23.9668 24.7188C23.7454 24.5951 23.5599 24.4388 23.4102 24.25L24.0303 23.4199C24.193 23.6087 24.3818 23.7552 24.5967 23.8594C24.8115 23.9668 25.0492 24.0205 25.3096 24.0205C25.5635 24.0205 25.7783 23.9733 25.9541 23.8789C26.1299 23.7878 26.265 23.6527 26.3594 23.4736C26.4538 23.2979 26.501 23.0846 26.501 22.834V18.9375L26.6377 17.7168ZM23.083 20.4219V20.3193C23.083 19.9157 23.1318 19.5495 23.2295 19.2207C23.3304 18.8887 23.472 18.6038 23.6543 18.3662C23.8398 18.1286 24.0645 17.9447 24.3281 17.8145C24.5918 17.6842 24.8896 17.6191 25.2217 17.6191C25.5732 17.6191 25.8678 17.6842 26.1055 17.8145C26.3431 17.9447 26.5384 18.1302 26.6914 18.3711C26.8444 18.6087 26.9632 18.8903 27.0479 19.2158C27.1357 19.5381 27.2041 19.8913 27.2529 20.2754V20.5C27.2041 20.8678 27.1309 21.2096 27.0332 21.5254C26.9355 21.8411 26.807 22.1178 26.6475 22.3555C26.488 22.5898 26.2894 22.7721 26.0518 22.9023C25.8174 23.0326 25.5374 23.0977 25.2119 23.0977C24.8864 23.0977 24.5918 23.0309 24.3281 22.8975C24.0677 22.764 23.8447 22.5768 23.6592 22.3359C23.4736 22.0951 23.3304 21.8118 23.2295 21.4863C23.1318 21.1608 23.083 20.806 23.083 20.4219ZM24.4893 20.3193V20.4219C24.4893 20.64 24.5104 20.8434 24.5527 21.0322C24.5951 21.221 24.6602 21.3887 24.748 21.5352C24.8392 21.6784 24.9515 21.7907 25.085 21.8721C25.2217 21.9502 25.3828 21.9893 25.5684 21.9893C25.8255 21.9893 26.0355 21.9355 26.1982 21.8281C26.361 21.7174 26.4831 21.5661 26.5645 21.374C26.6458 21.182 26.693 20.9606 26.7061 20.71V20.0703C26.6995 19.8652 26.6719 19.6813 26.623 19.5186C26.5742 19.3525 26.5059 19.2109 26.418 19.0938C26.3301 18.9766 26.2161 18.8854 26.0762 18.8203C25.9362 18.7552 25.7702 18.7227 25.5781 18.7227C25.3926 18.7227 25.2314 18.765 25.0947 18.8496C24.9613 18.931 24.849 19.0433 24.7578 19.1865C24.6699 19.3298 24.6032 19.499 24.5576 19.6943C24.512 19.8864 24.4893 20.0947 24.4893 20.3193ZM28.7812 20.4121V20.3096C28.7812 19.9222 28.8366 19.5658 28.9473 19.2402C29.0579 18.9115 29.2191 18.6266 29.4307 18.3857C29.6423 18.1449 29.9027 17.9577 30.2119 17.8242C30.5212 17.6875 30.876 17.6191 31.2764 17.6191C31.6768 17.6191 32.0332 17.6875 32.3457 17.8242C32.6582 17.9577 32.9202 18.1449 33.1318 18.3857C33.3467 18.6266 33.5094 18.9115 33.6201 19.2402C33.7308 19.5658 33.7861 19.9222 33.7861 20.3096V20.4121C33.7861 20.7962 33.7308 21.1527 33.6201 21.4814C33.5094 21.807 33.3467 22.0918 33.1318 22.3359C32.9202 22.5768 32.6598 22.764 32.3506 22.8975C32.0413 23.0309 31.6865 23.0977 31.2861 23.0977C30.8857 23.0977 30.5293 23.0309 30.2168 22.8975C29.9076 22.764 29.6455 22.5768 29.4307 22.3359C29.2191 22.0918 29.0579 21.807 28.9473 21.4814C28.8366 21.1527 28.7812 20.7962 28.7812 20.4121ZM30.1875 20.3096V20.4121C30.1875 20.6335 30.207 20.8402 30.2461 21.0322C30.2852 21.2243 30.347 21.3936 30.4316 21.54C30.5195 21.6833 30.6335 21.7956 30.7734 21.877C30.9134 21.9583 31.0843 21.999 31.2861 21.999C31.4814 21.999 31.6491 21.9583 31.7891 21.877C31.929 21.7956 32.0413 21.6833 32.126 21.54C32.2106 21.3936 32.2725 21.2243 32.3115 21.0322C32.3538 20.8402 32.375 20.6335 32.375 20.4121V20.3096C32.375 20.0947 32.3538 19.8929 32.3115 19.7041C32.2725 19.512 32.209 19.3428 32.1211 19.1963C32.0365 19.0465 31.9242 18.9294 31.7842 18.8447C31.6442 18.7601 31.4749 18.7178 31.2764 18.7178C31.0778 18.7178 30.9085 18.7601 30.7686 18.8447C30.6318 18.9294 30.5195 19.0465 30.4316 19.1963C30.347 19.3428 30.2852 19.512 30.2461 19.7041C30.207 19.8929 30.1875 20.0947 30.1875 20.3096Z" fill="#29A867"/>
<circle cx="36" cy="22" r="1" fill="#29A867"/>
</svg>
