<svg width="81" height="28" viewBox="0 0 81 28" fill="none" xmlns="http://www.w3.org/2000/svg">
<path d="M10.4062 17.5352C10.4062 17.2305 10.3594 16.957 10.2656 16.7148C10.1797 16.4648 10.0156 16.2383 9.77344 16.0352C9.53125 15.8242 9.19141 15.6172 8.75391 15.4141C8.31641 15.2109 7.75 15 7.05469 14.7812C6.28125 14.5312 5.54688 14.25 4.85156 13.9375C4.16406 13.625 3.55469 13.2617 3.02344 12.8477C2.5 12.4258 2.08594 11.9375 1.78125 11.3828C1.48438 10.8281 1.33594 10.1836 1.33594 9.44922C1.33594 8.73828 1.49219 8.09375 1.80469 7.51562C2.11719 6.92969 2.55469 6.42969 3.11719 6.01562C3.67969 5.59375 4.34375 5.26953 5.10938 5.04297C5.88281 4.81641 6.73047 4.70312 7.65234 4.70312C8.91016 4.70312 10.0078 4.92969 10.9453 5.38281C11.8828 5.83594 12.6094 6.45703 13.125 7.24609C13.6484 8.03516 13.9102 8.9375 13.9102 9.95312H10.418C10.418 9.45312 10.3125 9.01562 10.1016 8.64062C9.89844 8.25781 9.58594 7.95703 9.16406 7.73828C8.75 7.51953 8.22656 7.41016 7.59375 7.41016C6.98438 7.41016 6.47656 7.50391 6.07031 7.69141C5.66406 7.87109 5.35938 8.11719 5.15625 8.42969C4.95312 8.73438 4.85156 9.07812 4.85156 9.46094C4.85156 9.75 4.92188 10.0117 5.0625 10.2461C5.21094 10.4805 5.42969 10.6992 5.71875 10.9023C6.00781 11.1055 6.36328 11.2969 6.78516 11.4766C7.20703 11.6562 7.69531 11.832 8.25 12.0039C9.17969 12.2852 9.99609 12.6016 10.6992 12.9531C11.4102 13.3047 12.0039 13.6992 12.4805 14.1367C12.957 14.5742 13.3164 15.0703 13.5586 15.625C13.8008 16.1797 13.9219 16.8086 13.9219 17.5117C13.9219 18.2539 13.7773 18.918 13.4883 19.5039C13.1992 20.0898 12.7812 20.5859 12.2344 20.9922C11.6875 21.3984 11.0352 21.707 10.2773 21.918C9.51953 22.1289 8.67188 22.2344 7.73438 22.2344C6.89062 22.2344 6.05859 22.125 5.23828 21.9062C4.41797 21.6797 3.67188 21.3398 3 20.8867C2.33594 20.4336 1.80469 19.8555 1.40625 19.1523C1.00781 18.4492 0.808594 17.6172 0.808594 16.6562H4.33594C4.33594 17.1875 4.41797 17.6367 4.58203 18.0039C4.74609 18.3711 4.97656 18.668 5.27344 18.8945C5.57812 19.1211 5.9375 19.2852 6.35156 19.3867C6.77344 19.4883 7.23438 19.5391 7.73438 19.5391C8.34375 19.5391 8.84375 19.4531 9.23438 19.2812C9.63281 19.1094 9.92578 18.8711 10.1133 18.5664C10.3086 18.2617 10.4062 17.918 10.4062 17.5352ZM19.6641 9.32031V22H16.2773V9.32031H19.6641ZM16.0664 6.01562C16.0664 5.52344 16.2383 5.11719 16.582 4.79688C16.9258 4.47656 17.3867 4.31641 17.9648 4.31641C18.5352 4.31641 18.9922 4.47656 19.3359 4.79688C19.6875 5.11719 19.8633 5.52344 19.8633 6.01562C19.8633 6.50781 19.6875 6.91406 19.3359 7.23438C18.9922 7.55469 18.5352 7.71484 17.9648 7.71484C17.3867 7.71484 16.9258 7.55469 16.582 7.23438C16.2383 6.91406 16.0664 6.50781 16.0664 6.01562ZM29.5664 16.7617V4.9375H33.0703V16.7617C33.0703 17.9023 32.8203 18.8828 32.3203 19.7031C31.8203 20.5156 31.1367 21.1406 30.2695 21.5781C29.4102 22.0156 28.4414 22.2344 27.3633 22.2344C26.2461 22.2344 25.2578 22.0469 24.3984 21.6719C23.5391 21.2969 22.8633 20.7227 22.3711 19.9492C21.8789 19.168 21.6328 18.1797 21.6328 16.9844H25.1602C25.1602 17.6094 25.2461 18.1055 25.418 18.4727C25.5977 18.8398 25.8516 19.1016 26.1797 19.2578C26.5078 19.4141 26.9023 19.4922 27.3633 19.4922C27.8086 19.4922 28.1953 19.3867 28.5234 19.1758C28.8516 18.9648 29.1055 18.6562 29.2852 18.25C29.4727 17.8438 29.5664 17.3477 29.5664 16.7617ZM42.7031 19.1406V13.4922C42.7031 13.0859 42.6367 12.7383 42.5039 12.4492C42.3711 12.1523 42.1641 11.9219 41.8828 11.7578C41.6094 11.5938 41.2539 11.5117 40.8164 11.5117C40.4414 11.5117 40.1172 11.5781 39.8438 11.7109C39.5703 11.8359 39.3594 12.0195 39.2109 12.2617C39.0625 12.4961 38.9883 12.7734 38.9883 13.0938H35.6133C35.6133 12.5547 35.7383 12.043 35.9883 11.5586C36.2383 11.0742 36.6016 10.6484 37.0781 10.2812C37.5547 9.90625 38.1211 9.61328 38.7773 9.40234C39.4414 9.19141 40.1836 9.08594 41.0039 9.08594C41.9883 9.08594 42.8633 9.25 43.6289 9.57812C44.3945 9.90625 44.9961 10.3984 45.4336 11.0547C45.8789 11.7109 46.1016 12.5312 46.1016 13.5156V18.9414C46.1016 19.6367 46.1445 20.207 46.2305 20.6523C46.3164 21.0898 46.4414 21.4727 46.6055 21.8008V22H43.1953C43.0312 21.6562 42.9062 21.2266 42.8203 20.7109C42.7422 20.1875 42.7031 19.6641 42.7031 19.1406ZM43.1484 14.2773L43.1719 16.1875H41.2852C40.8398 16.1875 40.4531 16.2383 40.125 16.3398C39.7969 16.4414 39.5273 16.5859 39.3164 16.7734C39.1055 16.9531 38.9492 17.1641 38.8477 17.4062C38.7539 17.6484 38.707 17.9141 38.707 18.2031C38.707 18.4922 38.7734 18.7539 38.9062 18.9883C39.0391 19.2148 39.2305 19.3945 39.4805 19.5273C39.7305 19.6523 40.0234 19.7148 40.3594 19.7148C40.8672 19.7148 41.3086 19.6133 41.6836 19.4102C42.0586 19.207 42.3477 18.957 42.5508 18.6602C42.7617 18.3633 42.8711 18.082 42.8789 17.8164L43.7695 19.2461C43.6445 19.5664 43.4727 19.8984 43.2539 20.2422C43.043 20.5859 42.7734 20.9102 42.4453 21.2148C42.1172 21.5117 41.7227 21.7578 41.2617 21.9531C40.8008 22.1406 40.2539 22.2344 39.6211 22.2344C38.8164 22.2344 38.0859 22.0742 37.4297 21.7539C36.7812 21.4258 36.2656 20.9766 35.8828 20.4062C35.5078 19.8281 35.3203 19.1719 35.3203 18.4375C35.3203 17.7734 35.4453 17.1836 35.6953 16.668C35.9453 16.1523 36.3125 15.7188 36.7969 15.3672C37.2891 15.0078 37.9023 14.7383 38.6367 14.5586C39.3711 14.3711 40.2227 14.2773 41.1914 14.2773H43.1484ZM56.7305 9.32031H59.7891V21.5781C59.7891 22.7344 59.5312 23.7148 59.0156 24.5195C58.5078 25.332 57.7969 25.9453 56.8828 26.3594C55.9688 26.7812 54.9062 26.9922 53.6953 26.9922C53.1641 26.9922 52.6016 26.9219 52.0078 26.7812C51.4219 26.6406 50.8594 26.4219 50.3203 26.125C49.7891 25.8281 49.3438 25.4531 48.9844 25L50.4727 23.0078C50.8633 23.4609 51.3164 23.8125 51.832 24.0625C52.3477 24.3203 52.918 24.4492 53.543 24.4492C54.1523 24.4492 54.668 24.3359 55.0898 24.1094C55.5117 23.8906 55.8359 23.5664 56.0625 23.1367C56.2891 22.7148 56.4023 22.2031 56.4023 21.6016V12.25L56.7305 9.32031ZM48.1992 15.8125V15.5664C48.1992 14.5977 48.3164 13.7188 48.5508 12.9297C48.793 12.1328 49.1328 11.4492 49.5703 10.8789C50.0156 10.3086 50.5547 9.86719 51.1875 9.55469C51.8203 9.24219 52.5352 9.08594 53.332 9.08594C54.1758 9.08594 54.8828 9.24219 55.4531 9.55469C56.0234 9.86719 56.4922 10.3125 56.8594 10.8906C57.2266 11.4609 57.5117 12.1367 57.7148 12.918C57.9258 13.6914 58.0898 14.5391 58.207 15.4609V16C58.0898 16.8828 57.9141 17.7031 57.6797 18.4609C57.4453 19.2188 57.1367 19.8828 56.7539 20.4531C56.3711 21.0156 55.8945 21.4531 55.3242 21.7656C54.7617 22.0781 54.0898 22.2344 53.3086 22.2344C52.5273 22.2344 51.8203 22.0742 51.1875 21.7539C50.5625 21.4336 50.0273 20.9844 49.582 20.4062C49.1367 19.8281 48.793 19.1484 48.5508 18.3672C48.3164 17.5859 48.1992 16.7344 48.1992 15.8125ZM51.5742 15.5664V15.8125C51.5742 16.3359 51.625 16.8242 51.7266 17.2773C51.8281 17.7305 51.9844 18.1328 52.1953 18.4844C52.4141 18.8281 52.6836 19.0977 53.0039 19.293C53.332 19.4805 53.7188 19.5742 54.1641 19.5742C54.7812 19.5742 55.2852 19.4453 55.6758 19.1875C56.0664 18.9219 56.3594 18.5586 56.5547 18.0977C56.75 17.6367 56.8633 17.1055 56.8945 16.5039V14.9688C56.8789 14.4766 56.8125 14.0352 56.6953 13.6445C56.5781 13.2461 56.4141 12.9062 56.2031 12.625C55.9922 12.3438 55.7188 12.125 55.3828 11.9688C55.0469 11.8125 54.6484 11.7344 54.1875 11.7344C53.7422 11.7344 53.3555 11.8359 53.0273 12.0391C52.707 12.2344 52.4375 12.5039 52.2188 12.8477C52.0078 13.1914 51.8477 13.5977 51.7383 14.0664C51.6289 14.5273 51.5742 15.0273 51.5742 15.5664ZM61.875 15.7891V15.543C61.875 14.6133 62.0078 13.7578 62.2734 12.9766C62.5391 12.1875 62.9258 11.5039 63.4336 10.9258C63.9414 10.3477 64.5664 9.89844 65.3086 9.57812C66.0508 9.25 66.9023 9.08594 67.8633 9.08594C68.8242 9.08594 69.6797 9.25 70.4297 9.57812C71.1797 9.89844 71.8086 10.3477 72.3164 10.9258C72.832 11.5039 73.2227 12.1875 73.4883 12.9766C73.7539 13.7578 73.8867 14.6133 73.8867 15.543V15.7891C73.8867 16.7109 73.7539 17.5664 73.4883 18.3555C73.2227 19.1367 72.832 19.8203 72.3164 20.4062C71.8086 20.9844 71.1836 21.4336 70.4414 21.7539C69.6992 22.0742 68.8477 22.2344 67.8867 22.2344C66.9258 22.2344 66.0703 22.0742 65.3203 21.7539C64.5781 21.4336 63.9492 20.9844 63.4336 20.4062C62.9258 19.8203 62.5391 19.1367 62.2734 18.3555C62.0078 17.5664 61.875 16.7109 61.875 15.7891ZM65.25 15.543V15.7891C65.25 16.3203 65.2969 16.8164 65.3906 17.2773C65.4844 17.7383 65.6328 18.1445 65.8359 18.4961C66.0469 18.8398 66.3203 19.1094 66.6562 19.3047C66.9922 19.5 67.4023 19.5977 67.8867 19.5977C68.3555 19.5977 68.7578 19.5 69.0938 19.3047C69.4297 19.1094 69.6992 18.8398 69.9023 18.4961C70.1055 18.1445 70.2539 17.7383 70.3477 17.2773C70.4492 16.8164 70.5 16.3203 70.5 15.7891V15.543C70.5 15.0273 70.4492 14.543 70.3477 14.0898C70.2539 13.6289 70.1016 13.2227 69.8906 12.8711C69.6875 12.5117 69.418 12.2305 69.082 12.0273C68.7461 11.8242 68.3398 11.7227 67.8633 11.7227C67.3867 11.7227 66.9805 11.8242 66.6445 12.0273C66.3164 12.2305 66.0469 12.5117 65.8359 12.8711C65.6328 13.2227 65.4844 13.6289 65.3906 14.0898C65.2969 14.543 65.25 15.0273 65.25 15.543Z" fill="#29A867"/>
<circle cx="78.5" cy="23.5" r="2.5" fill="#29A867"/>
</svg>
